<mxfile host="Electron" modified="2023-09-28T19:18:58.303Z" agent="Mozilla/5.0 (X11; Linux x86_64) AppleWebKit/537.36 (KHTML, like Gecko) draw.io/21.7.5 Chrome/114.0.5735.289 Electron/25.8.1 Safari/537.36" etag="cAUvKI5aLW1qMrcH8PiF" version="21.7.5" type="device">
  <diagram name="Page-1" id="szmnxGdlaXyJvGICkwQv">
    <mxGraphModel dx="2645" dy="1893" grid="0" gridSize="10" guides="1" tooltips="1" connect="0" arrows="1" fold="1" page="0" pageScale="1" pageWidth="850" pageHeight="1100" math="0" shadow="0">
      <root>
        <mxCell id="0" />
        <mxCell id="1" parent="0" />
        <mxCell id="O9bSro2omilcJmeRdmUG-48" value="&lt;span style=&quot;color: rgb(0, 0, 0); font-family: &amp;quot;Architects Daughter&amp;quot;; font-size: 20px; font-style: normal; font-variant-ligatures: normal; font-variant-caps: normal; font-weight: 400; letter-spacing: normal; orphans: 2; text-align: center; text-indent: 0px; text-transform: none; widows: 2; word-spacing: 0px; -webkit-text-stroke-width: 0px; text-decoration-thickness: initial; text-decoration-style: initial; text-decoration-color: initial; float: none; display: inline !important;&quot;&gt;host machine&lt;/span&gt;" style="shape=umlFrame;whiteSpace=wrap;html=1;pointerEvents=0;sketch=1;hachureGap=4;jiggle=2;curveFitting=1;fontFamily=Architects Daughter;fontSource=https%3A%2F%2Ffonts.googleapis.com%2Fcss%3Ffamily%3DArchitects%2BDaughter;fontSize=20;width=158;height=31;fillColor=none;movable=1;resizable=1;rotatable=1;deletable=1;editable=1;locked=0;connectable=1;labelBackgroundColor=default;" vertex="1" parent="1">
          <mxGeometry x="-145" y="965" width="393" height="604" as="geometry" />
        </mxCell>
        <mxCell id="O9bSro2omilcJmeRdmUG-45" value="&lt;span style=&quot;color: rgb(0, 0, 0); font-family: &amp;quot;Architects Daughter&amp;quot;; font-size: 20px; font-style: normal; font-variant-ligatures: normal; font-variant-caps: normal; font-weight: 400; letter-spacing: normal; orphans: 2; text-align: center; text-indent: 0px; text-transform: none; widows: 2; word-spacing: 0px; -webkit-text-stroke-width: 0px; text-decoration-thickness: initial; text-decoration-style: initial; text-decoration-color: initial; float: none; display: inline !important;&quot;&gt;docker network&lt;/span&gt;" style="shape=umlFrame;whiteSpace=wrap;html=1;pointerEvents=0;sketch=1;hachureGap=4;jiggle=2;curveFitting=1;fontFamily=Architects Daughter;fontSource=https%3A%2F%2Ffonts.googleapis.com%2Fcss%3Ffamily%3DArchitects%2BDaughter;fontSize=20;width=181;height=39;fillColor=#dae8fc;strokeColor=#6c8ebf;movable=1;resizable=1;rotatable=1;deletable=1;editable=1;locked=0;connectable=1;labelBackgroundColor=default;" vertex="1" parent="1">
          <mxGeometry x="-52" y="1029" width="300" height="529" as="geometry" />
        </mxCell>
        <mxCell id="O9bSro2omilcJmeRdmUG-23" value="&lt;span style=&quot;color: rgb(0, 0, 0); font-family: &amp;quot;Architects Daughter&amp;quot;; font-size: 20px; font-style: normal; font-variant-ligatures: normal; font-variant-caps: normal; font-weight: 400; letter-spacing: normal; orphans: 2; text-align: center; text-indent: 0px; text-transform: none; widows: 2; word-spacing: 0px; -webkit-text-stroke-width: 0px; text-decoration-thickness: initial; text-decoration-style: initial; text-decoration-color: initial; float: none; display: inline !important;&quot;&gt;docker network&lt;/span&gt;" style="shape=umlFrame;whiteSpace=wrap;html=1;pointerEvents=0;sketch=1;hachureGap=4;jiggle=2;curveFitting=1;fontFamily=Architects Daughter;fontSource=https%3A%2F%2Ffonts.googleapis.com%2Fcss%3Ffamily%3DArchitects%2BDaughter;fontSize=20;width=181;height=39;fillColor=#dae8fc;strokeColor=#6c8ebf;movable=1;resizable=1;rotatable=1;deletable=1;editable=1;locked=0;connectable=1;labelBackgroundColor=default;" vertex="1" parent="1">
          <mxGeometry x="-40" y="297" width="300" height="328" as="geometry" />
        </mxCell>
        <mxCell id="O9bSro2omilcJmeRdmUG-31" value="access deny" style="edgeStyle=none;curved=1;rounded=0;sketch=1;hachureGap=4;jiggle=2;curveFitting=1;orthogonalLoop=1;jettySize=auto;html=1;fontFamily=Architects Daughter;fontSource=https%3A%2F%2Ffonts.googleapis.com%2Fcss%3Ffamily%3DArchitects%2BDaughter;fontSize=17;startSize=8;endSize=8;fillColor=#f8cecc;strokeColor=#b85450;fontColor=#FF2B24;fontStyle=1;movable=1;resizable=1;rotatable=1;deletable=1;editable=1;locked=0;connectable=1;labelBackgroundColor=default;" edge="1" parent="1" source="O9bSro2omilcJmeRdmUG-32" target="O9bSro2omilcJmeRdmUG-30">
          <mxGeometry relative="1" as="geometry" />
        </mxCell>
        <mxCell id="O9bSro2omilcJmeRdmUG-27" value=". . . n containers . . ." style="text;html=1;align=center;verticalAlign=middle;resizable=1;points=[];autosize=1;strokeColor=none;fillColor=none;fontSize=20;fontFamily=Architects Daughter;movable=1;rotatable=1;deletable=1;editable=1;locked=0;connectable=1;labelBackgroundColor=default;" vertex="1" parent="1">
          <mxGeometry x="4.25" y="365" width="198" height="36" as="geometry" />
        </mxCell>
        <mxCell id="O9bSro2omilcJmeRdmUG-29" value="&lt;span style=&quot;color: rgb(0, 0, 0); font-family: &amp;quot;Architects Daughter&amp;quot;; font-size: 20px; font-style: normal; font-variant-ligatures: normal; font-variant-caps: normal; font-weight: 400; letter-spacing: normal; orphans: 2; text-align: center; text-indent: 0px; text-transform: none; widows: 2; word-spacing: 0px; -webkit-text-stroke-width: 0px; text-decoration-thickness: initial; text-decoration-style: initial; text-decoration-color: initial; float: none; display: inline !important;&quot;&gt;host machine&lt;/span&gt;" style="shape=umlFrame;whiteSpace=wrap;html=1;pointerEvents=0;sketch=1;hachureGap=4;jiggle=2;curveFitting=1;fontFamily=Architects Daughter;fontSource=https%3A%2F%2Ffonts.googleapis.com%2Fcss%3Ffamily%3DArchitects%2BDaughter;fontSize=20;width=158;height=31;fillColor=none;movable=1;resizable=1;rotatable=1;deletable=1;editable=1;locked=0;connectable=1;labelBackgroundColor=default;" vertex="1" parent="1">
          <mxGeometry x="-118" y="233" width="393" height="410" as="geometry" />
        </mxCell>
        <mxCell id="O9bSro2omilcJmeRdmUG-30" value="&lt;span style=&quot;color: rgb(0, 0, 0); font-family: &amp;quot;Architects Daughter&amp;quot;; font-size: 20px; font-style: normal; font-variant-ligatures: normal; font-variant-caps: normal; font-weight: 400; letter-spacing: normal; orphans: 2; text-align: center; text-indent: 0px; text-transform: none; widows: 2; word-spacing: 0px; -webkit-text-stroke-width: 0px; text-decoration-thickness: initial; text-decoration-style: initial; text-decoration-color: initial; float: none; display: inline !important;&quot;&gt;some server&lt;/span&gt;" style="shape=image;whiteSpace=wrap;html=1;pointerEvents=0;sketch=1;hachureGap=4;jiggle=2;curveFitting=1;fontFamily=Architects Daughter;fontSource=https%3A%2F%2Ffonts.googleapis.com%2Fcss%3Ffamily%3DArchitects%2BDaughter;fontSize=20;width=217;height=33;fillColor=none;labelBackgroundColor=default;verticalAlign=top;verticalLabelPosition=bottom;points=[];aspect=fixed;shadow=0;dashed=0;image=img/lib/allied_telesis/computer_and_terminals/Server_Desktop.svg;movable=1;resizable=1;rotatable=1;deletable=1;editable=1;locked=0;connectable=1;" vertex="1" parent="1">
          <mxGeometry x="625" y="444" width="205.5" height="137" as="geometry" />
        </mxCell>
        <mxCell id="O9bSro2omilcJmeRdmUG-33" value="" style="edgeStyle=none;curved=1;rounded=0;sketch=1;hachureGap=4;jiggle=2;curveFitting=1;orthogonalLoop=1;jettySize=auto;html=1;fontFamily=Architects Daughter;fontSource=https%3A%2F%2Ffonts.googleapis.com%2Fcss%3Ffamily%3DArchitects%2BDaughter;fontSize=16;startSize=8;endSize=8;movable=1;resizable=1;rotatable=1;deletable=1;editable=1;locked=0;connectable=1;labelBackgroundColor=default;" edge="1" parent="1" source="O9bSro2omilcJmeRdmUG-26" target="O9bSro2omilcJmeRdmUG-32">
          <mxGeometry relative="1" as="geometry">
            <mxPoint x="202" y="455" as="sourcePoint" />
            <mxPoint x="711" y="453" as="targetPoint" />
          </mxGeometry>
        </mxCell>
        <mxCell id="O9bSro2omilcJmeRdmUG-32" value="trought&lt;br&gt;internet" style="ellipse;shape=cloud;whiteSpace=wrap;html=1;sketch=1;hachureGap=4;jiggle=2;curveFitting=1;fontFamily=Architects Daughter;fontSource=https%3A%2F%2Ffonts.googleapis.com%2Fcss%3Ffamily%3DArchitects%2BDaughter;fontSize=20;movable=1;resizable=1;rotatable=1;deletable=1;editable=1;locked=0;connectable=1;labelBackgroundColor=default;" vertex="1" parent="1">
          <mxGeometry x="348" y="309" width="168" height="112" as="geometry" />
        </mxCell>
        <mxCell id="O9bSro2omilcJmeRdmUG-44" value="" style="group;movable=1;resizable=1;rotatable=1;deletable=1;editable=1;locked=0;connectable=1;labelBackgroundColor=default;" vertex="1" connectable="0" parent="1">
          <mxGeometry x="2" y="428" width="205.5" height="137" as="geometry" />
        </mxCell>
        <mxCell id="O9bSro2omilcJmeRdmUG-24" value="&lt;span style=&quot;color: rgb(0, 0, 0); font-family: &amp;quot;Architects Daughter&amp;quot;; font-size: 20px; font-style: normal; font-variant-ligatures: normal; font-variant-caps: normal; font-weight: 400; letter-spacing: normal; orphans: 2; text-align: center; text-indent: 0px; text-transform: none; widows: 2; word-spacing: 0px; -webkit-text-stroke-width: 0px; text-decoration-thickness: initial; text-decoration-style: initial; text-decoration-color: initial; float: none; display: inline !important;&quot;&gt;docker container&lt;/span&gt;" style="shape=umlFrame;whiteSpace=wrap;html=1;pointerEvents=0;sketch=1;hachureGap=4;jiggle=2;curveFitting=1;fontFamily=Architects Daughter;fontSource=https%3A%2F%2Ffonts.googleapis.com%2Fcss%3Ffamily%3DArchitects%2BDaughter;fontSize=20;width=217;height=33;fillColor=none;movable=1;resizable=1;rotatable=1;deletable=1;editable=1;locked=0;connectable=1;labelBackgroundColor=default;" vertex="1" parent="O9bSro2omilcJmeRdmUG-44">
          <mxGeometry width="205.5" height="137" as="geometry" />
        </mxCell>
        <mxCell id="O9bSro2omilcJmeRdmUG-26" value="any web application&lt;br&gt;running" style="text;html=1;align=center;verticalAlign=middle;resizable=1;points=[];autosize=1;strokeColor=none;fillColor=none;fontSize=20;fontFamily=Architects Daughter;movable=1;rotatable=1;deletable=1;editable=1;locked=0;connectable=1;labelBackgroundColor=default;" vertex="1" parent="O9bSro2omilcJmeRdmUG-44">
          <mxGeometry x="4.25" y="53" width="197" height="60" as="geometry" />
        </mxCell>
        <mxCell id="O9bSro2omilcJmeRdmUG-50" value="" style="group;movable=1;resizable=1;rotatable=1;deletable=1;editable=1;locked=0;connectable=1;labelBackgroundColor=default;" vertex="1" connectable="0" parent="1">
          <mxGeometry x="11" y="1112" width="237" height="161" as="geometry" />
        </mxCell>
        <mxCell id="O9bSro2omilcJmeRdmUG-51" value="&lt;span style=&quot;color: rgb(0, 0, 0); font-family: &amp;quot;Architects Daughter&amp;quot;; font-size: 20px; font-style: normal; font-variant-ligatures: normal; font-variant-caps: normal; font-weight: 400; letter-spacing: normal; orphans: 2; text-align: center; text-indent: 0px; text-transform: none; widows: 2; word-spacing: 0px; -webkit-text-stroke-width: 0px; text-decoration-thickness: initial; text-decoration-style: initial; text-decoration-color: initial; float: none; display: inline !important;&quot;&gt;docker container&lt;/span&gt;" style="shape=umlFrame;whiteSpace=wrap;html=1;pointerEvents=0;sketch=1;hachureGap=4;jiggle=2;curveFitting=1;fontFamily=Architects Daughter;fontSource=https%3A%2F%2Ffonts.googleapis.com%2Fcss%3Ffamily%3DArchitects%2BDaughter;fontSize=20;width=217;height=33;fillColor=none;movable=1;resizable=1;rotatable=1;deletable=1;editable=1;locked=0;connectable=1;labelBackgroundColor=default;" vertex="1" parent="O9bSro2omilcJmeRdmUG-50">
          <mxGeometry width="236.99999999999997" height="161" as="geometry" />
        </mxCell>
        <mxCell id="O9bSro2omilcJmeRdmUG-52" value="any web application&lt;br&gt;running" style="text;html=1;align=center;verticalAlign=middle;resizable=1;points=[];autosize=1;strokeColor=none;fillColor=none;fontSize=20;fontFamily=Architects Daughter;movable=1;rotatable=1;deletable=1;editable=1;locked=0;connectable=1;labelBackgroundColor=default;" vertex="1" parent="O9bSro2omilcJmeRdmUG-50">
          <mxGeometry x="4.901459854014599" y="62.284671532846716" width="197" height="60" as="geometry" />
        </mxCell>
        <mxCell id="O9bSro2omilcJmeRdmUG-53" value="Without Droxy" style="text;html=1;align=center;verticalAlign=middle;resizable=1;points=[];autosize=1;strokeColor=none;fillColor=none;fontSize=80;fontFamily=Architects Daughter;movable=1;rotatable=1;deletable=1;editable=1;locked=0;connectable=1;labelBackgroundColor=default;" vertex="1" parent="1">
          <mxGeometry x="-130" y="110" width="550" height="108" as="geometry" />
        </mxCell>
        <mxCell id="O9bSro2omilcJmeRdmUG-54" value="With Droxy" style="text;html=1;align=center;verticalAlign=middle;resizable=1;points=[];autosize=1;strokeColor=none;fillColor=none;fontSize=80;fontFamily=Architects Daughter;movable=1;rotatable=1;deletable=1;editable=1;locked=0;connectable=1;labelBackgroundColor=default;" vertex="1" parent="1">
          <mxGeometry x="-152" y="838" width="432" height="108" as="geometry" />
        </mxCell>
        <mxCell id="O9bSro2omilcJmeRdmUG-55" value="&lt;span style=&quot;color: rgb(0, 0, 0); font-family: &amp;quot;Architects Daughter&amp;quot;; font-size: 20px; font-style: normal; font-variant-ligatures: normal; font-variant-caps: normal; font-weight: 400; letter-spacing: normal; orphans: 2; text-align: center; text-indent: 0px; text-transform: none; widows: 2; word-spacing: 0px; -webkit-text-stroke-width: 0px; text-decoration-thickness: initial; text-decoration-style: initial; text-decoration-color: initial; float: none; display: inline !important;&quot;&gt;some server&lt;/span&gt;" style="shape=image;whiteSpace=wrap;html=1;pointerEvents=0;sketch=1;hachureGap=4;jiggle=2;curveFitting=1;fontFamily=Architects Daughter;fontSource=https%3A%2F%2Ffonts.googleapis.com%2Fcss%3Ffamily%3DArchitects%2BDaughter;fontSize=20;width=217;height=33;fillColor=none;labelBackgroundColor=default;verticalAlign=top;verticalLabelPosition=bottom;points=[];aspect=fixed;shadow=0;dashed=0;image=img/lib/allied_telesis/computer_and_terminals/Server_Desktop.svg;movable=1;resizable=1;rotatable=1;deletable=1;editable=1;locked=0;connectable=1;" vertex="1" parent="1">
          <mxGeometry x="427" y="981" width="205.5" height="137" as="geometry" />
        </mxCell>
        <mxCell id="O9bSro2omilcJmeRdmUG-37" value="" style="edgeStyle=none;orthogonalLoop=1;jettySize=auto;html=1;rounded=1;sketch=1;hachureGap=4;jiggle=2;curveFitting=1;fontFamily=Architects Daughter;fontSource=https%3A%2F%2Ffonts.googleapis.com%2Fcss%3Ffamily%3DArchitects%2BDaughter;fontSize=16;curved=1;shape=link;width=28.260869565217398;strokeColor=default;shadow=0;backgroundOutline=0;flowAnimation=0;orthogonal=0;enumerate=0;snapToPoint=0;fixDash=0;labelBorderColor=none;exitX=0.443;exitY=0.981;exitDx=0;exitDy=0;exitPerimeter=0;entryX=0.505;entryY=-0.004;entryDx=0;entryDy=0;entryPerimeter=0;movable=1;resizable=1;rotatable=1;deletable=1;editable=1;locked=0;connectable=1;labelBackgroundColor=default;" edge="1" parent="1" source="O9bSro2omilcJmeRdmUG-51" target="O9bSro2omilcJmeRdmUG-49">
          <mxGeometry width="140" relative="1" as="geometry">
            <mxPoint x="143" y="1304" as="sourcePoint" />
            <mxPoint x="401" y="1304" as="targetPoint" />
          </mxGeometry>
        </mxCell>
        <mxCell id="O9bSro2omilcJmeRdmUG-60" value="" style="edgeStyle=none;orthogonalLoop=1;jettySize=auto;html=1;rounded=1;sketch=1;hachureGap=4;jiggle=2;curveFitting=1;fontFamily=Architects Daughter;fontSource=https%3A%2F%2Ffonts.googleapis.com%2Fcss%3Ffamily%3DArchitects%2BDaughter;fontSize=16;curved=1;shape=link;width=28.260869565217398;strokeColor=default;shadow=0;backgroundOutline=0;flowAnimation=0;orthogonal=0;enumerate=0;snapToPoint=0;fixDash=0;labelBorderColor=none;exitX=0.143;exitY=0.559;exitDx=0;exitDy=0;exitPerimeter=0;movable=1;resizable=1;rotatable=1;deletable=1;editable=1;locked=0;connectable=1;labelBackgroundColor=default;" edge="1" parent="1" source="O9bSro2omilcJmeRdmUG-34" target="O9bSro2omilcJmeRdmUG-49">
          <mxGeometry width="140" relative="1" as="geometry">
            <mxPoint x="126" y="1280" as="sourcePoint" />
            <mxPoint x="133" y="1376" as="targetPoint" />
          </mxGeometry>
        </mxCell>
        <mxCell id="O9bSro2omilcJmeRdmUG-62" value="" style="edgeStyle=none;orthogonalLoop=1;jettySize=auto;html=1;rounded=1;sketch=1;hachureGap=4;jiggle=2;curveFitting=1;fontFamily=Architects Daughter;fontSource=https%3A%2F%2Ffonts.googleapis.com%2Fcss%3Ffamily%3DArchitects%2BDaughter;fontSize=16;curved=1;shape=link;width=28.260869565217398;strokeColor=default;shadow=0;backgroundOutline=0;flowAnimation=0;orthogonal=0;enumerate=0;snapToPoint=0;fixDash=0;labelBorderColor=none;exitX=0.316;exitY=0.821;exitDx=0;exitDy=0;exitPerimeter=0;movable=1;resizable=1;rotatable=1;deletable=1;editable=1;locked=0;connectable=1;labelBackgroundColor=default;" edge="1" parent="1" source="O9bSro2omilcJmeRdmUG-61">
          <mxGeometry width="140" relative="1" as="geometry">
            <mxPoint x="856" y="1426.14" as="sourcePoint" />
            <mxPoint x="632" y="1427" as="targetPoint" />
            <Array as="points">
              <mxPoint x="770" y="1409" />
            </Array>
          </mxGeometry>
        </mxCell>
        <mxCell id="O9bSro2omilcJmeRdmUG-61" value="trought&lt;br style=&quot;border-color: var(--border-color);&quot;&gt;VPN" style="ellipse;shape=cloud;whiteSpace=wrap;html=1;sketch=1;hachureGap=4;jiggle=2;curveFitting=1;fontFamily=Architects Daughter;fontSource=https%3A%2F%2Ffonts.googleapis.com%2Fcss%3Ffamily%3DArchitects%2BDaughter;fontSize=20;movable=1;resizable=1;rotatable=1;deletable=1;editable=1;locked=0;connectable=1;labelBackgroundColor=default;" vertex="1" parent="1">
          <mxGeometry x="780" y="1193" width="237" height="158" as="geometry" />
        </mxCell>
        <mxCell id="O9bSro2omilcJmeRdmUG-49" value="&lt;span style=&quot;color: rgb(0, 0, 0); font-family: &amp;quot;Architects Daughter&amp;quot;; font-size: 20px; font-style: normal; font-variant-ligatures: normal; font-variant-caps: normal; font-weight: 400; letter-spacing: normal; orphans: 2; text-align: center; text-indent: 0px; text-transform: none; widows: 2; word-spacing: 0px; -webkit-text-stroke-width: 0px; text-decoration-thickness: initial; text-decoration-style: initial; text-decoration-color: initial; float: none; display: inline !important;&quot;&gt;docker container&lt;/span&gt;" style="shape=umlFrame;whiteSpace=wrap;html=1;pointerEvents=0;sketch=1;hachureGap=4;jiggle=2;curveFitting=1;fontFamily=Architects Daughter;fontSource=https%3A%2F%2Ffonts.googleapis.com%2Fcss%3Ffamily%3DArchitects%2BDaughter;fontSize=20;width=217;height=33;fillColor=#f8cecc;strokeColor=#b85450;movable=1;resizable=1;rotatable=1;deletable=1;editable=1;locked=0;connectable=1;labelBackgroundColor=default;" vertex="1" parent="1">
          <mxGeometry x="-1" y="1367" width="246" height="174" as="geometry" />
        </mxCell>
        <mxCell id="O9bSro2omilcJmeRdmUG-47" value="DROXY" style="text;html=1;align=center;verticalAlign=middle;resizable=1;points=[];autosize=1;fontSize=42;fontFamily=Architects Daughter;fontStyle=1;shadow=0;movable=1;rotatable=1;deletable=1;editable=1;locked=0;connectable=1;labelBackgroundColor=default;" vertex="1" parent="1">
          <mxGeometry x="46.5" y="1469" width="151" height="62" as="geometry" />
        </mxCell>
        <mxCell id="O9bSro2omilcJmeRdmUG-65" value="" style="edgeStyle=none;orthogonalLoop=1;jettySize=auto;html=1;rounded=0;hachureGap=4;fontFamily=Architects Daughter;fontSource=https%3A%2F%2Ffonts.googleapis.com%2Fcss%3Ffamily%3DArchitects%2BDaughter;fontSize=16;startSize=8;endSize=8;fillColor=#fff2cc;strokeColor=#d6b656;strokeWidth=7;exitX=0.438;exitY=0.993;exitDx=0;exitDy=0;exitPerimeter=0;sketch=1;curveFitting=1;jiggle=2;entryX=0.336;entryY=0.823;entryDx=0;entryDy=0;entryPerimeter=0;movable=1;resizable=1;rotatable=1;deletable=1;editable=1;locked=0;connectable=1;labelBackgroundColor=default;" edge="1" parent="1" source="O9bSro2omilcJmeRdmUG-51" target="O9bSro2omilcJmeRdmUG-61">
          <mxGeometry width="140" relative="1" as="geometry">
            <mxPoint x="285" y="1230" as="sourcePoint" />
            <mxPoint x="425" y="1230" as="targetPoint" />
            <Array as="points">
              <mxPoint x="127" y="1452" />
              <mxPoint x="487" y="1455" />
              <mxPoint x="763" y="1412" />
            </Array>
          </mxGeometry>
        </mxCell>
        <mxCell id="O9bSro2omilcJmeRdmUG-34" value="trought&lt;br style=&quot;border-color: var(--border-color);&quot;&gt;internet" style="ellipse;shape=cloud;whiteSpace=wrap;html=1;sketch=1;hachureGap=4;jiggle=2;curveFitting=1;fontFamily=Architects Daughter;fontSource=https%3A%2F%2Ffonts.googleapis.com%2Fcss%3Ffamily%3DArchitects%2BDaughter;fontSize=20;fillColor=none;movable=1;resizable=1;rotatable=1;deletable=1;editable=1;locked=0;connectable=1;labelBackgroundColor=default;" vertex="1" parent="1">
          <mxGeometry x="420" y="1365" width="237" height="158" as="geometry" />
        </mxCell>
        <mxCell id="O9bSro2omilcJmeRdmUG-63" style="edgeStyle=none;curved=1;rounded=0;sketch=1;hachureGap=4;jiggle=2;curveFitting=1;orthogonalLoop=1;jettySize=auto;html=1;fontFamily=Architects Daughter;fontSource=https%3A%2F%2Ffonts.googleapis.com%2Fcss%3Ffamily%3DArchitects%2BDaughter;fontSize=16;startSize=8;endSize=8;fillColor=#d5e8d4;strokeColor=#00CC00;strokeWidth=3;entryX=0.764;entryY=0.569;entryDx=0;entryDy=0;entryPerimeter=0;movable=1;resizable=1;rotatable=1;deletable=1;editable=1;locked=0;connectable=1;labelBackgroundColor=default;" edge="1" parent="1" target="O9bSro2omilcJmeRdmUG-55">
          <mxGeometry relative="1" as="geometry">
            <mxPoint x="854" y="1329" as="sourcePoint" />
            <Array as="points">
              <mxPoint x="884" y="1309" />
              <mxPoint x="772" y="1063" />
            </Array>
          </mxGeometry>
        </mxCell>
        <mxCell id="O9bSro2omilcJmeRdmUG-64" value="access granted" style="edgeLabel;html=1;align=center;verticalAlign=middle;resizable=1;points=[];fontSize=20;fontFamily=Architects Daughter;fontColor=#00CC00;movable=1;rotatable=1;deletable=1;editable=1;locked=0;connectable=1;labelBackgroundColor=default;" vertex="1" connectable="0" parent="O9bSro2omilcJmeRdmUG-63">
          <mxGeometry x="-0.1153" y="23" relative="1" as="geometry">
            <mxPoint y="-1" as="offset" />
          </mxGeometry>
        </mxCell>
      </root>
    </mxGraphModel>
  </diagram>
</mxfile>
